<svg width="127" height="127" viewBox="0 0 127 127" fill="none" xmlns="http://www.w3.org/2000/svg">
<path d="M46.9999 63.5242V68.3054V73.0866L46.9999 82.6489V92.4026C46.9999 97.9595 50.7158 102.87 56.0454 104.443V104.443C60.6531 105.803 65.6024 105.803 70.2029 104.42V104.42C75.425 102.849 78.9999 98.0406 78.9999 92.5874V82.6489V73.0866V68.3054V63.5242" stroke="white" stroke-width="10" stroke-linecap="round"/>
<path d="M46.9998 33.8226C46.9998 24.6281 54.2529 17.3387 62.9998 17.3387C71.7468 17.3387 78.9998 24.6281 78.9998 33.8226C78.9998 43.0171 71.7468 50.3065 62.9998 50.3065C54.2529 50.3065 46.9998 43.0171 46.9998 33.8226Z" stroke="white" stroke-width="8"/>
<circle cx="63.5" cy="63.5" r="59.5" transform="rotate(-180 63.5 63.5)" stroke="white" stroke-width="8"/>
</svg>
