<svg width="103" height="95" viewBox="0 0 103 95" fill="none" xmlns="http://www.w3.org/2000/svg">
<path d="M34.9999 49V53.6682V58.3365L34.9999 67.673V76.8657C34.9999 82.4798 38.7727 87.433 44.1673 88.9874V88.9874C48.7007 90.2936 53.5563 90.294 58.0829 88.9647V88.9647C63.3691 87.4122 66.9999 82.5618 66.9999 77.0524V67.673V58.3365V53.6682V49" stroke="white" stroke-width="10" stroke-linecap="round"/>
<path d="M17.1481 49L15.6056 49.4133L14.0631 49.8266L10.9781 50.6532L10.1655 50.871C7.05244 51.7051 4.96605 54.6531 5.18236 57.8687V57.8687C5.29948 59.6098 5.75948 61.3243 6.53431 62.8879V62.8879C7.93881 65.7221 11.1476 67.1723 14.2029 66.3536L15.1192 66.108L18.2042 65.2814L19.7467 64.8681L21.2892 64.4548" stroke="white" stroke-width="10" stroke-linecap="round"/>
<path d="M81 64.4548L82.5425 64.8681L84.085 65.2814L87.1699 66.108L87.9826 66.3258C91.0956 67.1599 94.3765 65.6501 95.797 62.7571V62.7571C96.5661 61.1908 97.025 59.4759 97.1357 57.7344V57.7344C97.3365 54.5777 95.2827 51.7174 92.2273 50.8987L91.311 50.6532L88.2261 49.8266L86.6836 49.4133L85.1411 49" stroke="white" stroke-width="10" stroke-linecap="round"/>
<circle cx="50.9998" cy="20" r="16" transform="rotate(-180 50.9998 20)" stroke="white" stroke-width="8"/>
</svg>
